HIERARCHY
ROOT joint_Root
{
	OFFSET 0.0 0.0 0.0
	CHANNELS 6 Xposition Yposition Zposition Zrotation Xrotation Yrotation 
	JOINT Hips
	{
		OFFSET -0.726466 93.3139 -2.00062
		CHANNELS 6 Xposition Yposition Zposition Zrotation Xrotation Yrotation 
		JOINT Spine
		{
			OFFSET 15.7357 0.0 0.0
			CHANNELS 6 Xposition Yposition Zposition Zrotation Xrotation Yrotation 
			JOINT Chest
			{
				OFFSET 8.98455 -0.406207 0.0
				CHANNELS 6 Xposition Yposition Zposition Zrotation Xrotation Yrotation 
				JOINT Neck
				{
					OFFSET 16.3773 0.0 0.0
					CHANNELS 6 Xposition Yposition Zposition Zrotation Xrotation Yrotation 
					JOINT Head
					{
						OFFSET 6.45672 0.0 0.0
						CHANNELS 6 Xposition Yposition Zposition Zrotation Xrotation Yrotation 
						End Site
						{
							OFFSET 0.0 0.0 0.0
						}
					}
				}
				JOINT Shoulder_L
				{
					OFFSET 12.9942 -0.242716 4.98039
					CHANNELS 6 Xposition Yposition Zposition Zrotation Xrotation Yrotation 
					JOINT UpperArm_L
					{
						OFFSET 5.34809 0.0 0.0
						CHANNELS 6 Xposition Yposition Zposition Zrotation Xrotation Yrotation 
						JOINT LowerArm_L
						{
							OFFSET 24.3286 1.87007e-05 0.0
							CHANNELS 6 Xposition Yposition Zposition Zrotation Xrotation Yrotation 
							JOINT Hand_L
							{
								OFFSET 22.2916 0.0 0.0
								CHANNELS 6 Xposition Yposition Zposition Zrotation Xrotation Yrotation 
								End Site
								{
									OFFSET 0.0 0.0 0.0
								}
							}
						}
					}
				}
				JOINT Shoulder_R
				{
					OFFSET 12.9945 -0.242716 -4.98039
					CHANNELS 6 Xposition Yposition Zposition Zrotation Xrotation Yrotation 
					JOINT UpperArm_R
					{
						OFFSET -5.34813 0.0 0.0
						CHANNELS 6 Xposition Yposition Zposition Zrotation Xrotation Yrotation 
						JOINT LowerArm_R
						{
							OFFSET -24.3289 0.000322201 0.0
							CHANNELS 6 Xposition Yposition Zposition Zrotation Xrotation Yrotation 
							JOINT Hand_R
							{
								OFFSET -22.2915 -0.000108084 0.0
								CHANNELS 6 Xposition Yposition Zposition Zrotation Xrotation Yrotation 
								End Site
								{
									OFFSET 0.0 0.0 0.0
								}
							}
						}
					}
				}
			}
		}
		JOINT UpperLeg_L
		{
			OFFSET -2.19248 -6.46944 0.0
			CHANNELS 6 Xposition Yposition Zposition Zrotation Xrotation Yrotation 
			JOINT LowerLeg_L
			{
				OFFSET 39.0811 0.0 -1.23785e-05
				CHANNELS 6 Xposition Yposition Zposition Zrotation Xrotation Yrotation 
				JOINT Foot_L
				{
					OFFSET 40.9854 0.0 -1.26872e-05
					CHANNELS 6 Xposition Yposition Zposition Zrotation Xrotation Yrotation 
					JOINT Toes_L
					{
						OFFSET 11.7543 0.0 0.0
						CHANNELS 6 Xposition Yposition Zposition Zrotation Xrotation Yrotation 
						End Site
						{
							OFFSET 0.0 0.0 0.0
						}
					}
				}
			}
		}
		JOINT UpperLeg_R
		{
			OFFSET -2.19251 6.46944 0.0
			CHANNELS 6 Xposition Yposition Zposition Zrotation Xrotation Yrotation 
			JOINT LowerLeg_R
			{
				OFFSET -39.0811 -0.00228153 -0.0401928
				CHANNELS 6 Xposition Yposition Zposition Zrotation Xrotation Yrotation 
				JOINT Foot_R
				{
					OFFSET -40.9854 0.0 0.0
					CHANNELS 6 Xposition Yposition Zposition Zrotation Xrotation Yrotation 
					JOINT Toes_R
					{
						OFFSET -11.7543 0.0 0.0
						CHANNELS 6 Xposition Yposition Zposition Zrotation Xrotation Yrotation 
						End Site
						{
							OFFSET 0.0 0.0 0.0
						}
					}
				}
			}
		}
	}
}
MOTION
Frames:	9
Frame Time:	0.0333333
0.000000 0.000000 0.000000 0.000000 0.000000 -0.000000 -0.139271 92.131800 -1.279930 88.011800 -0.898891 3.947480 15.735700 0.000005 -0.000001 86.563400 86.342400 -86.176400 8.984550 -0.406207 -0.000000 -0.462200 -0.466198 0.771630 16.377300 -0.000001 -0.000001 -0.754375 -2.433410 0.365665 6.456720 -0.000001 -0.000000 -2.461970 -3.739470 1.706330 12.994200 -0.242716 4.980390 -85.147600 -9.813320 -63.522700 5.348090 -0.000007 -0.000001 -57.322000 -53.884500 -51.330000 24.328600 0.000019 0.000005 -1.872180 -3.646470 -27.201600 22.291600 -0.000001 0.000005 20.034300 5.502390 -6.630090 12.994500 -0.242716 -4.980390 91.417600 -3.152420 -65.771800 -5.348130 -0.000001 -0.000004 -47.183400 -49.675500 -56.579000 -24.328900 0.000322 -0.000009 -2.236750 -6.031370 -20.382600 -22.291500 -0.000108 -0.000004 16.883800 5.367870 -1.920850 -2.192480 -6.469440 -0.000000 -169.691000 -17.106000 -2.820930 39.081100 -0.000007 -0.000012 -0.171032 0.421430 22.089400 40.985400 -0.000006 -0.000013 -6.649310 -2.982650 -63.325300 11.754300 -0.000000 0.000003 -0.000122 -0.001221 -16.624200 -2.192510 6.469440 -0.000001 173.503000 22.313400 179.685000 -39.081100 -0.002282 -0.040193 -0.003802 0.020201 19.427500 -40.985400 0.000008 0.000006 -2.911510 0.531644 -62.608700 -11.754300 -0.000006 -0.000006 -0.004021 -0.051654 -18.674300
0.000000 0.000000 0.000000 0.000000 0.000000 -0.000000 -0.134989 92.116400 -1.268540 88.001000 -0.766479 3.953000 15.735700 0.000005 -0.000001 86.485700 86.377000 -86.105800 8.984550 -0.406207 -0.000000 -0.532032 -0.471567 0.757201 16.377300 -0.000001 -0.000001 -0.797424 -2.426480 0.280593 6.456720 -0.000001 -0.000000 -2.427580 -3.734510 1.665080 12.994200 -0.242716 4.980390 -85.171800 -9.744120 -63.477000 5.348090 -0.000007 -0.000001 -58.533900 -53.984300 -52.401700 24.328600 0.000019 0.000005 -1.848360 -3.672230 -26.742000 22.291600 -0.000001 0.000005 20.229900 5.499520 -6.514130 12.994500 -0.242716 -4.980390 91.416500 -3.151340 -65.780500 -5.348130 -0.000001 -0.000004 -47.729300 -50.196700 -56.944300 -24.328900 0.000322 -0.000009 -2.183530 -6.084270 -19.776400 -22.291500 -0.000108 -0.000004 17.151500 5.361030 -1.710940 -2.192480 -6.469440 -0.000000 -169.692000 -17.033200 -2.914010 39.081100 -0.000007 -0.000012 -0.171423 0.419562 22.223900 40.985400 -0.000006 -0.000013 -6.633180 -2.913360 -63.377900 11.754300 -0.000000 0.000003 -0.000116 -0.001165 -16.622100 -2.192510 6.469440 -0.000001 173.481000 22.342800 179.710000 -39.081100 -0.002282 -0.040193 -0.008097 0.032341 19.448600 -40.985400 0.000008 0.000006 -3.181010 0.469413 -62.625300 -11.754300 -0.000006 -0.000006 -0.004080 -0.052267 -18.699200
0.000000 0.000000 0.000000 0.000000 0.000000 -0.000000 -0.135673 92.121800 -1.257200 88.051600 -0.684129 4.017010 15.735700 0.000005 -0.000001 86.240800 86.407100 -85.885500 8.984550 -0.406207 -0.000000 -0.594099 -0.496931 0.707736 16.377300 -0.000001 -0.000001 -0.762166 -2.424410 0.217345 6.456720 -0.000001 -0.000000 -2.471250 -3.678440 1.571980 12.994200 -0.242716 4.980390 -85.171600 -9.716760 -63.412500 5.348090 -0.000007 -0.000001 -59.604600 -53.961300 -54.238900 24.328600 0.000019 0.000005 -1.958380 -3.867720 -26.881900 22.291600 -0.000001 0.000005 20.151000 5.497740 -6.442510 12.994500 -0.242716 -4.980390 91.420500 -3.152840 -65.730700 -5.348130 -0.000001 -0.000004 -48.302900 -50.437300 -58.347700 -24.328900 0.000322 -0.000009 -2.207520 -6.143530 -19.799800 -22.291500 -0.000108 -0.000004 17.360400 5.363370 -1.782670 -2.192480 -6.469440 -0.000000 -169.723000 -17.060000 -2.816450 39.081100 -0.000007 -0.000012 -0.169549 0.416571 22.147100 40.985400 -0.000006 -0.000013 -6.608590 -2.830680 -63.331700 11.754300 -0.000000 0.000003 -0.000127 -0.001260 -16.625600 -2.192510 6.469440 -0.000001 173.403000 22.339700 179.798000 -39.081100 -0.002282 -0.040193 -0.007051 0.029355 19.461600 -40.985400 0.000008 0.000006 -3.073560 0.415535 -62.661200 -11.754300 -0.000006 -0.000006 -0.003868 -0.050064 -18.609500
0.000000 0.000000 0.000000 0.000000 0.000000 -0.000000 -0.139548 92.111000 -1.243530 88.039200 -0.651042 4.105560 15.735700 0.000005 -0.000001 85.840600 86.459600 -85.487700 8.984550 -0.406207 -0.000000 -0.702141 -0.539545 0.702148 16.377300 -0.000001 -0.000001 -0.772504 -2.392070 0.120333 6.456720 -0.000001 -0.000000 -2.382780 -3.588330 1.545890 12.994200 -0.242716 4.980390 -85.162100 -9.703660 -63.336600 5.348090 -0.000007 -0.000001 -60.583300 -53.784000 -56.747900 24.328600 0.000019 0.000005 -2.081700 -3.960170 -27.758700 22.291600 -0.000001 0.000005 20.244800 5.496730 -6.402370 12.994500 -0.242716 -4.980390 91.446500 -3.207690 -65.710900 -5.348130 -0.000001 -0.000004 -48.724700 -50.392500 -60.340100 -24.328900 0.000322 -0.000009 -2.390120 -6.365440 -20.621700 -22.291500 -0.000108 -0.000004 17.369200 5.365420 -1.845600 -2.192480 -6.469440 -0.000000 -169.678000 -17.014000 -2.767570 39.081100 -0.000007 -0.000012 -0.171680 0.420168 22.225100 40.985400 -0.000006 -0.000013 -6.614670 -2.807120 -63.370200 11.754300 -0.000000 0.000003 -0.000140 -0.001372 -16.629800 -2.192510 6.469440 -0.000001 173.376000 22.388600 179.865000 -39.081100 -0.002282 -0.040193 -0.006926 0.028869 19.544900 -40.985400 0.000008 0.000006 -3.050950 0.416815 -62.709600 -11.754300 -0.000006 -0.000006 -0.003641 -0.047649 -18.511200
0.000000 0.000000 0.000000 0.000000 0.000000 -0.000000 -0.154195 92.098900 -1.236070 88.033700 -0.688492 4.223170 15.735700 0.000005 -0.000001 85.499000 86.518800 -85.148100 8.984550 -0.406207 -0.000000 -0.823264 -0.572562 0.697294 16.377300 -0.000001 -0.000001 -0.784307 -2.381430 0.104136 6.456720 -0.000001 -0.000000 -2.264640 -3.464280 1.417390 12.994200 -0.242716 4.980390 -85.168800 -9.678870 -63.310100 5.348090 -0.000007 -0.000001 -60.969200 -53.392300 -59.489500 24.328600 0.000019 0.000005 -2.558810 -4.620000 -29.022800 22.291600 -0.000001 0.000005 20.228800 5.504670 -6.722870 12.994500 -0.242716 -4.980390 91.504300 -3.336540 -65.714400 -5.348130 -0.000001 -0.000004 -49.024300 -50.086400 -62.864800 -24.328900 0.000322 -0.000009 -2.668410 -6.650780 -21.912400 -22.291500 -0.000108 -0.000004 17.452800 5.374270 -2.119260 -2.192480 -6.469440 -0.000000 -169.620000 -17.040300 -2.661470 39.081100 -0.000007 -0.000012 -0.172213 0.419897 22.300300 40.985400 -0.000006 -0.000013 -6.623940 -2.785890 -63.418000 11.754300 -0.000000 0.000003 -0.000153 -0.001476 -16.633600 -2.192510 6.469440 -0.000001 173.354000 22.311000 179.940000 -39.081100 -0.002282 -0.040193 -0.005673 0.025180 19.657100 -40.985400 0.000008 0.000006 -2.989160 0.372841 -62.784600 -11.754300 -0.000006 -0.000006 -0.003936 -0.050770 -18.638300
0.000000 0.000000 0.000000 0.000000 0.000000 -0.000000 -0.151019 92.080400 -1.220360 88.045700 -0.813825 4.415980 15.735700 0.000005 -0.000001 85.557500 86.577000 -85.214300 8.984550 -0.406207 -0.000000 -0.938932 -0.556225 0.681535 16.377300 -0.000001 -0.000001 -0.770786 -2.284710 0.100139 6.456720 -0.000001 -0.000000 -2.111870 -3.371400 1.351050 12.994200 -0.242716 4.980390 -85.130900 -9.723890 -63.235200 5.348090 -0.000007 -0.000001 -61.349700 -52.744100 -62.794700 24.328600 0.000019 0.000005 -3.020100 -5.144900 -30.470300 22.291600 -0.000001 0.000005 20.278500 5.513030 -7.067820 12.994500 -0.242716 -4.980390 91.550500 -3.450100 -65.782500 -5.348130 -0.000001 -0.000004 -48.980600 -49.633600 -65.714300 -24.328900 0.000322 -0.000009 -2.910430 -6.750980 -23.380100 -22.291500 -0.000108 -0.000004 17.498100 5.384740 -2.447880 -2.192480 -6.469440 -0.000000 -169.579000 -16.956500 -2.476050 39.081100 -0.000007 -0.000012 -0.173686 0.421252 22.407100 40.985400 -0.000006 -0.000013 -6.675000 -2.980990 -63.514200 11.754300 -0.000000 0.000003 -0.000128 -0.001269 -16.626000 -2.192510 6.469440 -0.000001 173.256000 22.189800 -179.919000 -39.081100 -0.002282 -0.040193 -0.008053 0.031636 19.775600 -40.985400 0.000008 0.000006 -3.082210 0.448181 -62.841600 -11.754300 -0.000006 -0.000006 -0.003936 -0.050771 -18.638300
0.000000 0.000000 0.000000 0.000000 0.000000 -0.000000 -0.166929 92.068900 -1.212170 88.004600 -0.966848 4.629880 15.735700 0.000005 -0.000001 85.510700 86.634000 -85.142800 8.984550 -0.406207 -0.000000 -1.052800 -0.555123 0.730378 16.377300 -0.000001 -0.000001 -0.726390 -2.199210 0.087384 6.456720 -0.000001 -0.000000 -2.022590 -3.204390 1.202380 12.994200 -0.242716 4.980390 -85.094200 -9.758400 -63.141900 5.348090 -0.000007 -0.000001 -61.551300 -51.933400 -66.324700 24.328600 0.000019 0.000005 -3.566330 -5.673020 -32.231000 22.291600 -0.000001 0.000005 20.088900 5.521960 -7.445770 12.994500 -0.242716 -4.980390 91.664600 -3.706940 -65.796300 -5.348130 -0.000001 -0.000004 -49.350100 -49.021700 -69.253600 -24.328900 0.000322 -0.000009 -3.030970 -6.535690 -24.940100 -22.291500 -0.000108 -0.000004 17.542900 5.393220 -2.718400 -2.192480 -6.469440 -0.000000 -169.430000 -16.998700 -2.228980 39.081100 -0.000007 -0.000012 -0.175574 0.424446 22.472900 40.985400 -0.000006 -0.000013 -6.709470 -2.981740 -63.578200 11.754300 -0.000000 0.000003 -0.000114 -0.001151 -16.621600 -2.192510 6.469440 -0.000001 173.251000 22.125800 -179.779000 -39.081100 -0.002282 -0.040193 -0.003213 0.018037 19.914900 -40.985400 0.000008 0.000006 -2.849850 0.508325 -62.916100 -11.754300 -0.000006 -0.000006 -0.003870 -0.050087 -18.610400
0.000000 0.000000 0.000000 0.000000 0.000000 -0.000000 -0.179422 92.051100 -1.220160 87.994800 -1.126910 4.816560 15.735700 0.000005 -0.000001 86.132300 86.685300 -85.763300 8.984550 -0.406207 -0.000000 -1.150050 -0.475784 0.733022 16.377300 -0.000001 -0.000001 -0.790216 -2.189880 0.153970 6.456720 -0.000001 -0.000000 -1.866970 -3.041510 0.952580 12.994200 -0.242716 4.980390 -85.039400 -9.871360 -63.147700 5.348090 -0.000007 -0.000001 -61.227700 -50.997400 -69.810100 24.328600 0.000019 0.000005 -4.047160 -6.005500 -34.069300 22.291600 -0.000001 0.000005 19.917200 5.527470 -7.684210 12.994500 -0.242716 -4.980390 91.756600 -3.903040 -65.746400 -5.348130 -0.000001 -0.000004 -49.669300 -48.400300 -73.101300 -24.328900 0.000322 -0.000009 -3.081250 -6.172490 -26.586600 -22.291500 -0.000108 -0.000004 17.577000 5.397750 -2.864490 -2.192480 -6.469440 -0.000000 -169.344000 -17.040300 -2.057810 39.081100 -0.000007 -0.000012 -0.177205 0.425921 22.590100 40.985400 -0.000006 -0.000013 -6.739010 -3.048780 -63.653300 11.754300 -0.000000 0.000003 -0.000124 -0.001238 -16.624800 -2.192510 6.469440 -0.000001 173.195000 22.056700 -179.681000 -39.081100 -0.002282 -0.040193 -0.005395 0.023879 20.052200 -40.985400 0.000008 0.000006 -2.904500 0.585200 -62.957400 -11.754300 -0.000006 -0.000006 -0.003982 -0.051255 -18.658000
0.000000 0.000000 0.000000 0.000000 0.000000 -0.000000 -0.192037 92.052100 -1.261690 87.989000 -1.214000 4.946370 15.735700 0.000005 -0.000001 86.183800 86.710100 -85.805900 8.984550 -0.406207 -0.000000 -1.199160 -0.467389 0.750821 16.377300 -0.000001 -0.000001 -0.764371 -2.044370 0.129215 6.456720 -0.000001 -0.000000 -1.975420 -2.800130 0.781165 12.994200 -0.242716 4.980390 -84.959400 -9.987690 -63.044100 5.348090 -0.000007 -0.000001 -60.948000 -49.986300 -73.613400 24.328600 0.000019 0.000005 -4.280180 -5.915040 -35.989200 22.291600 -0.000001 0.000005 19.757600 5.530200 -7.804160 12.994500 -0.242716 -4.980390 91.868300 -4.165730 -65.817600 -5.348130 -0.000001 -0.000004 -50.075300 -47.951700 -77.139000 -24.328900 0.000322 -0.000009 -3.248070 -6.037170 -28.342800 -22.291500 -0.000108 -0.000004 17.281500 5.407170 -3.172310 -2.192480 -6.469440 -0.000000 -169.297000 -17.090700 -1.939280 39.081100 -0.000007 -0.000012 -0.175328 0.421141 22.603000 40.985400 -0.000006 -0.000013 -6.742680 -3.103750 -63.638600 11.754300 -0.000000 0.000003 -0.000136 -0.001333 -16.628400 -2.192510 6.469440 -0.000001 173.191000 21.962000 -179.612000 -39.081100 -0.002282 -0.040193 -0.002425 0.015697 20.106400 -40.985400 0.000008 0.000006 -2.752710 0.623795 -62.971200 -11.754300 -0.000006 -0.000006 -0.003786 -0.049199 -18.574300
